<mxfile host="app.diagrams.net" modified="2024-03-13T17:23:39.815Z" agent="Mozilla/5.0 (Windows NT 10.0; Win64; x64) AppleWebKit/537.36 (KHTML, like Gecko) Chrome/122.0.0.0 Safari/537.36" etag="VmrfKxHWtk9KWdRtZPP9" version="24.0.5" type="device">
  <diagram name="Page-1" id="2c0d36ab-eaac-3732-788b-9136903baeff">
    <mxGraphModel dx="1014" dy="624" grid="1" gridSize="10" guides="1" tooltips="1" connect="1" arrows="1" fold="1" page="1" pageScale="1.5" pageWidth="1169" pageHeight="827" background="none" math="0" shadow="0">
      <root>
        <mxCell id="0" />
        <mxCell id="1" parent="0" />
        <mxCell id="PPkpom0niNUSvHj-dNhn-72" style="edgeStyle=orthogonalEdgeStyle;rounded=0;orthogonalLoop=1;jettySize=auto;html=1;exitX=0.5;exitY=1;exitDx=0;exitDy=0;strokeWidth=2;" edge="1" parent="1" source="2" target="PPkpom0niNUSvHj-dNhn-63">
          <mxGeometry relative="1" as="geometry" />
        </mxCell>
        <mxCell id="PPkpom0niNUSvHj-dNhn-73" style="edgeStyle=orthogonalEdgeStyle;rounded=0;orthogonalLoop=1;jettySize=auto;html=1;exitX=0.5;exitY=1;exitDx=0;exitDy=0;entryX=0.5;entryY=0;entryDx=0;entryDy=0;strokeWidth=2;" edge="1" parent="1" source="2" target="PPkpom0niNUSvHj-dNhn-62">
          <mxGeometry relative="1" as="geometry" />
        </mxCell>
        <mxCell id="PPkpom0niNUSvHj-dNhn-74" style="edgeStyle=orthogonalEdgeStyle;rounded=0;orthogonalLoop=1;jettySize=auto;html=1;exitX=0.5;exitY=1;exitDx=0;exitDy=0;entryX=0.5;entryY=0;entryDx=0;entryDy=0;strokeWidth=2;" edge="1" parent="1" source="2" target="PPkpom0niNUSvHj-dNhn-61">
          <mxGeometry relative="1" as="geometry" />
        </mxCell>
        <mxCell id="PPkpom0niNUSvHj-dNhn-75" style="edgeStyle=orthogonalEdgeStyle;rounded=0;orthogonalLoop=1;jettySize=auto;html=1;exitX=0.5;exitY=1;exitDx=0;exitDy=0;entryX=0.5;entryY=0;entryDx=0;entryDy=0;strokeWidth=2;" edge="1" parent="1" source="2" target="PPkpom0niNUSvHj-dNhn-67">
          <mxGeometry relative="1" as="geometry" />
        </mxCell>
        <mxCell id="PPkpom0niNUSvHj-dNhn-76" style="edgeStyle=orthogonalEdgeStyle;rounded=0;orthogonalLoop=1;jettySize=auto;html=1;exitX=0.5;exitY=1;exitDx=0;exitDy=0;entryX=0.5;entryY=0;entryDx=0;entryDy=0;strokeWidth=2;" edge="1" parent="1" source="2" target="PPkpom0niNUSvHj-dNhn-66">
          <mxGeometry relative="1" as="geometry" />
        </mxCell>
        <mxCell id="PPkpom0niNUSvHj-dNhn-77" style="edgeStyle=orthogonalEdgeStyle;rounded=0;orthogonalLoop=1;jettySize=auto;html=1;exitX=0.5;exitY=1;exitDx=0;exitDy=0;entryX=0.5;entryY=0;entryDx=0;entryDy=0;strokeWidth=2;" edge="1" parent="1" source="2" target="PPkpom0niNUSvHj-dNhn-64">
          <mxGeometry relative="1" as="geometry" />
        </mxCell>
        <mxCell id="PPkpom0niNUSvHj-dNhn-78" style="edgeStyle=orthogonalEdgeStyle;rounded=0;orthogonalLoop=1;jettySize=auto;html=1;exitX=0.5;exitY=1;exitDx=0;exitDy=0;entryX=0.5;entryY=0;entryDx=0;entryDy=0;strokeWidth=2;" edge="1" parent="1" source="2" target="PPkpom0niNUSvHj-dNhn-70">
          <mxGeometry relative="1" as="geometry" />
        </mxCell>
        <mxCell id="2" value="Homepage" style="rounded=1;fillColor=#23445D;gradientColor=none;strokeColor=none;fontColor=#FFFFFF;fontStyle=1;fontFamily=Tahoma;fontSize=14" parent="1" vertex="1">
          <mxGeometry x="815" y="170" width="123" height="44.5" as="geometry" />
        </mxCell>
        <mxCell id="9" value="" style="edgeStyle=elbowEdgeStyle;elbow=vertical;strokeWidth=2;rounded=0;entryX=0.5;entryY=0;entryDx=0;entryDy=0;" parent="1" source="2" target="PPkpom0niNUSvHj-dNhn-69" edge="1">
          <mxGeometry x="337" y="215.5" width="100" height="100" as="geometry">
            <mxPoint x="337" y="315.5" as="sourcePoint" />
            <mxPoint x="1457" y="335.5" as="targetPoint" />
          </mxGeometry>
        </mxCell>
        <mxCell id="PPkpom0niNUSvHj-dNhn-88" style="edgeStyle=elbowEdgeStyle;rounded=0;orthogonalLoop=1;jettySize=auto;elbow=vertical;html=1;exitX=0.5;exitY=1;exitDx=0;exitDy=0;entryX=0.5;entryY=0;entryDx=0;entryDy=0;strokeColor=default;strokeWidth=2;align=center;verticalAlign=middle;fontFamily=Tahoma;fontSize=14;fontColor=#FFFFFF;fontStyle=1;labelBackgroundColor=default;endArrow=classic;" edge="1" parent="1" source="13" target="PPkpom0niNUSvHj-dNhn-79">
          <mxGeometry relative="1" as="geometry" />
        </mxCell>
        <mxCell id="PPkpom0niNUSvHj-dNhn-89" style="edgeStyle=elbowEdgeStyle;rounded=0;orthogonalLoop=1;jettySize=auto;elbow=vertical;html=1;exitX=0.5;exitY=1;exitDx=0;exitDy=0;entryX=0.5;entryY=0;entryDx=0;entryDy=0;strokeColor=default;strokeWidth=2;align=center;verticalAlign=middle;fontFamily=Tahoma;fontSize=14;fontColor=#FFFFFF;fontStyle=1;labelBackgroundColor=default;endArrow=classic;" edge="1" parent="1" source="13" target="PPkpom0niNUSvHj-dNhn-81">
          <mxGeometry relative="1" as="geometry">
            <Array as="points">
              <mxPoint x="240" y="450" />
            </Array>
          </mxGeometry>
        </mxCell>
        <mxCell id="PPkpom0niNUSvHj-dNhn-90" style="edgeStyle=elbowEdgeStyle;rounded=0;orthogonalLoop=1;jettySize=auto;elbow=vertical;html=1;exitX=0.5;exitY=1;exitDx=0;exitDy=0;entryX=0.5;entryY=0;entryDx=0;entryDy=0;strokeColor=default;strokeWidth=2;align=center;verticalAlign=middle;fontFamily=Tahoma;fontSize=14;fontColor=#FFFFFF;fontStyle=1;labelBackgroundColor=default;endArrow=classic;" edge="1" parent="1" source="13" target="PPkpom0niNUSvHj-dNhn-80">
          <mxGeometry relative="1" as="geometry">
            <Array as="points">
              <mxPoint x="250" y="520" />
            </Array>
          </mxGeometry>
        </mxCell>
        <mxCell id="PPkpom0niNUSvHj-dNhn-91" style="edgeStyle=elbowEdgeStyle;rounded=0;orthogonalLoop=1;jettySize=auto;elbow=vertical;html=1;exitX=0.5;exitY=1;exitDx=0;exitDy=0;entryX=0.5;entryY=0;entryDx=0;entryDy=0;strokeColor=default;strokeWidth=2;align=center;verticalAlign=middle;fontFamily=Tahoma;fontSize=14;fontColor=#FFFFFF;fontStyle=1;labelBackgroundColor=default;endArrow=classic;" edge="1" parent="1" source="13" target="PPkpom0niNUSvHj-dNhn-82">
          <mxGeometry relative="1" as="geometry">
            <Array as="points">
              <mxPoint x="250" y="590" />
            </Array>
          </mxGeometry>
        </mxCell>
        <mxCell id="13" value="Department" style="rounded=1;fillColor=#23445D;gradientColor=none;strokeColor=none;fontColor=#FFFFFF;fontStyle=1;fontFamily=Tahoma;fontSize=14" parent="1" vertex="1">
          <mxGeometry x="222" y="335.5" width="100" height="34.5" as="geometry" />
        </mxCell>
        <mxCell id="59" value="" style="edgeStyle=elbowEdgeStyle;elbow=vertical;strokeWidth=2;rounded=0;entryX=0.5;entryY=0;entryDx=0;entryDy=0;" parent="1" source="2" target="bw0k12YjKv94TmdElg0g-125" edge="1">
          <mxGeometry x="347" y="225.5" width="100" height="100" as="geometry">
            <mxPoint x="861.9999999999999" y="275.5" as="sourcePoint" />
            <mxPoint x="1466.9999999999998" y="345.5" as="targetPoint" />
          </mxGeometry>
        </mxCell>
        <mxCell id="61" value="" style="edgeStyle=elbowEdgeStyle;elbow=vertical;strokeWidth=2;rounded=0" parent="1" source="2" target="13" edge="1">
          <mxGeometry x="-23" y="135.5" width="100" height="100" as="geometry">
            <mxPoint x="-23" y="235.5" as="sourcePoint" />
            <mxPoint x="77" y="135.5" as="targetPoint" />
          </mxGeometry>
        </mxCell>
        <mxCell id="PPkpom0niNUSvHj-dNhn-98" style="edgeStyle=elbowEdgeStyle;rounded=0;orthogonalLoop=1;jettySize=auto;elbow=vertical;html=1;exitX=0.5;exitY=1;exitDx=0;exitDy=0;entryX=0.5;entryY=0;entryDx=0;entryDy=0;strokeColor=default;strokeWidth=2;align=center;verticalAlign=middle;fontFamily=Tahoma;fontSize=14;fontColor=#FFFFFF;fontStyle=1;labelBackgroundColor=default;endArrow=classic;" edge="1" parent="1" source="bw0k12YjKv94TmdElg0g-125" target="PPkpom0niNUSvHj-dNhn-92">
          <mxGeometry relative="1" as="geometry" />
        </mxCell>
        <mxCell id="PPkpom0niNUSvHj-dNhn-99" style="edgeStyle=elbowEdgeStyle;rounded=0;orthogonalLoop=1;jettySize=auto;elbow=vertical;html=1;exitX=0.5;exitY=1;exitDx=0;exitDy=0;entryX=0.5;entryY=0;entryDx=0;entryDy=0;strokeColor=default;strokeWidth=2;align=center;verticalAlign=middle;fontFamily=Tahoma;fontSize=14;fontColor=#FFFFFF;fontStyle=1;labelBackgroundColor=default;endArrow=classic;" edge="1" parent="1" source="bw0k12YjKv94TmdElg0g-125" target="PPkpom0niNUSvHj-dNhn-94">
          <mxGeometry relative="1" as="geometry">
            <Array as="points">
              <mxPoint x="400" y="450" />
            </Array>
          </mxGeometry>
        </mxCell>
        <mxCell id="PPkpom0niNUSvHj-dNhn-100" style="edgeStyle=elbowEdgeStyle;rounded=0;orthogonalLoop=1;jettySize=auto;elbow=vertical;html=1;exitX=0.5;exitY=1;exitDx=0;exitDy=0;entryX=0.5;entryY=0;entryDx=0;entryDy=0;strokeColor=default;strokeWidth=2;align=center;verticalAlign=middle;fontFamily=Tahoma;fontSize=14;fontColor=#FFFFFF;fontStyle=1;labelBackgroundColor=default;endArrow=classic;" edge="1" parent="1" source="bw0k12YjKv94TmdElg0g-125" target="PPkpom0niNUSvHj-dNhn-95">
          <mxGeometry relative="1" as="geometry">
            <Array as="points">
              <mxPoint x="400" y="520" />
            </Array>
          </mxGeometry>
        </mxCell>
        <mxCell id="PPkpom0niNUSvHj-dNhn-101" style="edgeStyle=elbowEdgeStyle;rounded=0;orthogonalLoop=1;jettySize=auto;elbow=vertical;html=1;exitX=0.5;exitY=1;exitDx=0;exitDy=0;entryX=0.5;entryY=0;entryDx=0;entryDy=0;strokeColor=default;strokeWidth=2;align=center;verticalAlign=middle;fontFamily=Tahoma;fontSize=14;fontColor=#FFFFFF;fontStyle=1;labelBackgroundColor=default;endArrow=classic;" edge="1" parent="1" source="bw0k12YjKv94TmdElg0g-125" target="PPkpom0niNUSvHj-dNhn-96">
          <mxGeometry relative="1" as="geometry">
            <Array as="points">
              <mxPoint x="400" y="590" />
            </Array>
          </mxGeometry>
        </mxCell>
        <mxCell id="PPkpom0niNUSvHj-dNhn-102" style="edgeStyle=elbowEdgeStyle;rounded=0;orthogonalLoop=1;jettySize=auto;elbow=vertical;html=1;exitX=0.5;exitY=1;exitDx=0;exitDy=0;entryX=0.5;entryY=0;entryDx=0;entryDy=0;strokeColor=default;strokeWidth=2;align=center;verticalAlign=middle;fontFamily=Tahoma;fontSize=14;fontColor=#FFFFFF;fontStyle=1;labelBackgroundColor=default;endArrow=classic;" edge="1" parent="1" source="bw0k12YjKv94TmdElg0g-125" target="PPkpom0niNUSvHj-dNhn-97">
          <mxGeometry relative="1" as="geometry">
            <Array as="points">
              <mxPoint x="400" y="660" />
            </Array>
          </mxGeometry>
        </mxCell>
        <mxCell id="bw0k12YjKv94TmdElg0g-125" value="Admission" style="rounded=1;fillColor=#23445D;gradientColor=none;strokeColor=none;fontColor=#FFFFFF;fontStyle=1;fontFamily=Tahoma;fontSize=14" parent="1" vertex="1">
          <mxGeometry x="372" y="335.5" width="100" height="34.5" as="geometry" />
        </mxCell>
        <mxCell id="PPkpom0niNUSvHj-dNhn-61" value="Copyright" style="rounded=1;fillColor=#23445D;gradientColor=none;strokeColor=none;fontColor=#FFFFFF;fontStyle=1;fontFamily=Tahoma;fontSize=14" vertex="1" parent="1">
          <mxGeometry x="1142" y="335.5" width="100" height="34.5" as="geometry" />
        </mxCell>
        <mxCell id="PPkpom0niNUSvHj-dNhn-62" value="Announcements" style="rounded=1;fillColor=#23445D;gradientColor=none;strokeColor=none;fontColor=#FFFFFF;fontStyle=1;fontFamily=Tahoma;fontSize=14" vertex="1" parent="1">
          <mxGeometry x="952" y="335.5" width="130" height="34.5" as="geometry" />
        </mxCell>
        <mxCell id="PPkpom0niNUSvHj-dNhn-63" value="Information" style="rounded=1;fillColor=#23445D;gradientColor=none;strokeColor=none;fontColor=#FFFFFF;fontStyle=1;fontFamily=Tahoma;fontSize=14" vertex="1" parent="1">
          <mxGeometry x="804" y="335.5" width="110" height="34.5" as="geometry" />
        </mxCell>
        <mxCell id="PPkpom0niNUSvHj-dNhn-64" value="Course" style="rounded=1;fillColor=#23445D;gradientColor=none;strokeColor=none;fontColor=#FFFFFF;fontStyle=1;fontFamily=Tahoma;fontSize=14" vertex="1" parent="1">
          <mxGeometry x="522" y="335.5" width="100" height="34.5" as="geometry" />
        </mxCell>
        <mxCell id="PPkpom0niNUSvHj-dNhn-66" value="Downloads" style="rounded=1;fillColor=#23445D;gradientColor=none;strokeColor=none;fontColor=#FFFFFF;fontStyle=1;fontFamily=Tahoma;fontSize=14" vertex="1" parent="1">
          <mxGeometry x="662" y="335.5" width="100" height="34.5" as="geometry" />
        </mxCell>
        <mxCell id="PPkpom0niNUSvHj-dNhn-67" value="Admin" style="rounded=1;fillColor=#23445D;gradientColor=none;strokeColor=none;fontColor=#FFFFFF;fontStyle=1;fontFamily=Tahoma;fontSize=14" vertex="1" parent="1">
          <mxGeometry x="1292" y="335.5" width="100" height="34.5" as="geometry" />
        </mxCell>
        <mxCell id="PPkpom0niNUSvHj-dNhn-69" value="Contact" style="rounded=1;fillColor=#23445D;gradientColor=none;strokeColor=none;fontColor=#FFFFFF;fontStyle=1;fontFamily=Tahoma;fontSize=14" vertex="1" parent="1">
          <mxGeometry x="1432" y="335.5" width="100" height="34.5" as="geometry" />
        </mxCell>
        <mxCell id="PPkpom0niNUSvHj-dNhn-70" value="Sitemap" style="rounded=1;fillColor=#23445D;gradientColor=none;strokeColor=none;fontColor=#FFFFFF;fontStyle=1;fontFamily=Tahoma;fontSize=14" vertex="1" parent="1">
          <mxGeometry x="1570" y="335.5" width="100" height="34.5" as="geometry" />
        </mxCell>
        <mxCell id="PPkpom0niNUSvHj-dNhn-79" value="Introduction" style="rounded=1;whiteSpace=wrap;html=1;align=center;verticalAlign=middle;fontFamily=Tahoma;fontSize=14;fontStyle=1;fillColor=#a20025;strokeColor=#6F0000;fontColor=#ffffff;" vertex="1" parent="1">
          <mxGeometry x="160" y="400" width="98" height="34.5" as="geometry" />
        </mxCell>
        <mxCell id="PPkpom0niNUSvHj-dNhn-80" value="Member" style="rounded=1;whiteSpace=wrap;html=1;align=center;verticalAlign=middle;fontFamily=Tahoma;fontSize=14;fontStyle=1;fillColor=#a20025;strokeColor=#6F0000;fontColor=#ffffff;" vertex="1" parent="1">
          <mxGeometry x="160" y="540" width="98" height="34.5" as="geometry" />
        </mxCell>
        <mxCell id="PPkpom0niNUSvHj-dNhn-81" value="Area" style="rounded=1;whiteSpace=wrap;html=1;align=center;verticalAlign=middle;fontFamily=Tahoma;fontSize=14;fontStyle=1;fillColor=#a20025;strokeColor=#6F0000;fontColor=#ffffff;" vertex="1" parent="1">
          <mxGeometry x="160" y="470" width="98" height="34.5" as="geometry" />
        </mxCell>
        <mxCell id="PPkpom0niNUSvHj-dNhn-82" value="Lab" style="rounded=1;whiteSpace=wrap;html=1;align=center;verticalAlign=middle;fontFamily=Tahoma;fontSize=14;fontStyle=1;fillColor=#a20025;strokeColor=#6F0000;fontColor=#ffffff;" vertex="1" parent="1">
          <mxGeometry x="160" y="610" width="98" height="34.5" as="geometry" />
        </mxCell>
        <mxCell id="PPkpom0niNUSvHj-dNhn-92" value="undergraduate" style="rounded=1;whiteSpace=wrap;html=1;align=center;verticalAlign=middle;fontFamily=Tahoma;fontSize=14;fontStyle=1;fillColor=#a20025;strokeColor=#6F0000;fontColor=#ffffff;" vertex="1" parent="1">
          <mxGeometry x="300" y="400" width="108" height="34.5" as="geometry" />
        </mxCell>
        <mxCell id="PPkpom0niNUSvHj-dNhn-94" value="master" style="rounded=1;whiteSpace=wrap;html=1;align=center;verticalAlign=middle;fontFamily=Tahoma;fontSize=14;fontStyle=1;fillColor=#a20025;strokeColor=#6F0000;fontColor=#ffffff;" vertex="1" parent="1">
          <mxGeometry x="310" y="470" width="98" height="34.5" as="geometry" />
        </mxCell>
        <mxCell id="PPkpom0niNUSvHj-dNhn-95" value="phd" style="rounded=1;whiteSpace=wrap;html=1;align=center;verticalAlign=middle;fontFamily=Tahoma;fontSize=14;fontStyle=1;fillColor=#a20025;strokeColor=#6F0000;fontColor=#ffffff;" vertex="1" parent="1">
          <mxGeometry x="312" y="540" width="98" height="34.5" as="geometry" />
        </mxCell>
        <mxCell id="PPkpom0niNUSvHj-dNhn-96" value="iocs" style="rounded=1;whiteSpace=wrap;html=1;align=center;verticalAlign=middle;fontFamily=Tahoma;fontSize=14;fontStyle=1;fillColor=#a20025;strokeColor=#6F0000;fontColor=#ffffff;" vertex="1" parent="1">
          <mxGeometry x="310" y="610" width="98" height="34.5" as="geometry" />
        </mxCell>
        <mxCell id="PPkpom0niNUSvHj-dNhn-97" value="emis" style="rounded=1;whiteSpace=wrap;html=1;align=center;verticalAlign=middle;fontFamily=Tahoma;fontSize=14;fontStyle=1;fillColor=#a20025;strokeColor=#6F0000;fontColor=#ffffff;" vertex="1" parent="1">
          <mxGeometry x="310" y="680" width="98" height="34.5" as="geometry" />
        </mxCell>
        <mxCell id="PPkpom0niNUSvHj-dNhn-103" style="edgeStyle=elbowEdgeStyle;rounded=0;orthogonalLoop=1;jettySize=auto;elbow=vertical;html=1;exitX=0.5;exitY=1;exitDx=0;exitDy=0;entryX=0.5;entryY=0;entryDx=0;entryDy=0;strokeColor=default;strokeWidth=2;align=center;verticalAlign=middle;fontFamily=Tahoma;fontSize=14;fontColor=#FFFFFF;fontStyle=1;labelBackgroundColor=default;endArrow=classic;" edge="1" parent="1" target="PPkpom0niNUSvHj-dNhn-108">
          <mxGeometry relative="1" as="geometry">
            <mxPoint x="572" y="370" as="sourcePoint" />
          </mxGeometry>
        </mxCell>
        <mxCell id="PPkpom0niNUSvHj-dNhn-104" style="edgeStyle=elbowEdgeStyle;rounded=0;orthogonalLoop=1;jettySize=auto;elbow=vertical;html=1;exitX=0.5;exitY=1;exitDx=0;exitDy=0;entryX=0.5;entryY=0;entryDx=0;entryDy=0;strokeColor=default;strokeWidth=2;align=center;verticalAlign=middle;fontFamily=Tahoma;fontSize=14;fontColor=#FFFFFF;fontStyle=1;labelBackgroundColor=default;endArrow=classic;" edge="1" parent="1" target="PPkpom0niNUSvHj-dNhn-109">
          <mxGeometry relative="1" as="geometry">
            <mxPoint x="572" y="370" as="sourcePoint" />
            <Array as="points">
              <mxPoint x="550" y="450" />
            </Array>
          </mxGeometry>
        </mxCell>
        <mxCell id="PPkpom0niNUSvHj-dNhn-105" style="edgeStyle=elbowEdgeStyle;rounded=0;orthogonalLoop=1;jettySize=auto;elbow=vertical;html=1;exitX=0.5;exitY=1;exitDx=0;exitDy=0;entryX=0.5;entryY=0;entryDx=0;entryDy=0;strokeColor=default;strokeWidth=2;align=center;verticalAlign=middle;fontFamily=Tahoma;fontSize=14;fontColor=#FFFFFF;fontStyle=1;labelBackgroundColor=default;endArrow=classic;" edge="1" parent="1" target="PPkpom0niNUSvHj-dNhn-110">
          <mxGeometry relative="1" as="geometry">
            <mxPoint x="572" y="370" as="sourcePoint" />
            <Array as="points">
              <mxPoint x="550" y="520" />
            </Array>
          </mxGeometry>
        </mxCell>
        <mxCell id="PPkpom0niNUSvHj-dNhn-108" value="undergraduate" style="rounded=1;whiteSpace=wrap;html=1;align=center;verticalAlign=middle;fontFamily=Tahoma;fontSize=14;fontStyle=1;fillColor=#a20025;strokeColor=#6F0000;fontColor=#ffffff;" vertex="1" parent="1">
          <mxGeometry x="450" y="400" width="108" height="34.5" as="geometry" />
        </mxCell>
        <mxCell id="PPkpom0niNUSvHj-dNhn-109" value="master" style="rounded=1;whiteSpace=wrap;html=1;align=center;verticalAlign=middle;fontFamily=Tahoma;fontSize=14;fontStyle=1;fillColor=#a20025;strokeColor=#6F0000;fontColor=#ffffff;" vertex="1" parent="1">
          <mxGeometry x="460" y="470" width="98" height="34.5" as="geometry" />
        </mxCell>
        <mxCell id="PPkpom0niNUSvHj-dNhn-110" value="phd" style="rounded=1;whiteSpace=wrap;html=1;align=center;verticalAlign=middle;fontFamily=Tahoma;fontSize=14;fontStyle=1;fillColor=#a20025;strokeColor=#6F0000;fontColor=#ffffff;" vertex="1" parent="1">
          <mxGeometry x="462" y="540" width="98" height="34.5" as="geometry" />
        </mxCell>
        <mxCell id="PPkpom0niNUSvHj-dNhn-113" style="edgeStyle=elbowEdgeStyle;rounded=0;orthogonalLoop=1;jettySize=auto;elbow=vertical;html=1;exitX=0.5;exitY=1;exitDx=0;exitDy=0;entryX=0.5;entryY=0;entryDx=0;entryDy=0;strokeColor=default;strokeWidth=2;align=center;verticalAlign=middle;fontFamily=Tahoma;fontSize=14;fontColor=#FFFFFF;fontStyle=1;labelBackgroundColor=default;endArrow=classic;" edge="1" parent="1" target="PPkpom0niNUSvHj-dNhn-114">
          <mxGeometry relative="1" as="geometry">
            <mxPoint x="862" y="370" as="sourcePoint" />
          </mxGeometry>
        </mxCell>
        <mxCell id="PPkpom0niNUSvHj-dNhn-114" value="future" style="rounded=1;whiteSpace=wrap;html=1;align=center;verticalAlign=middle;fontFamily=Tahoma;fontSize=14;fontStyle=1;fillColor=#a20025;strokeColor=#6F0000;fontColor=#ffffff;" vertex="1" parent="1">
          <mxGeometry x="740" y="400" width="108" height="34.5" as="geometry" />
        </mxCell>
        <mxCell id="PPkpom0niNUSvHj-dNhn-115" style="edgeStyle=elbowEdgeStyle;rounded=0;orthogonalLoop=1;jettySize=auto;elbow=vertical;html=1;entryX=0.5;entryY=0;entryDx=0;entryDy=0;strokeColor=default;strokeWidth=2;align=center;verticalAlign=middle;fontFamily=Tahoma;fontSize=14;fontColor=#FFFFFF;fontStyle=1;labelBackgroundColor=default;endArrow=classic;" edge="1" parent="1" target="PPkpom0niNUSvHj-dNhn-116" source="PPkpom0niNUSvHj-dNhn-62">
          <mxGeometry relative="1" as="geometry">
            <mxPoint x="1022" y="370" as="sourcePoint" />
          </mxGeometry>
        </mxCell>
        <mxCell id="PPkpom0niNUSvHj-dNhn-116" value="category" style="rounded=1;whiteSpace=wrap;html=1;align=center;verticalAlign=middle;fontFamily=Tahoma;fontSize=14;fontStyle=1;fillColor=#a20025;strokeColor=#6F0000;fontColor=#ffffff;" vertex="1" parent="1">
          <mxGeometry x="900" y="400" width="108" height="34.5" as="geometry" />
        </mxCell>
      </root>
    </mxGraphModel>
  </diagram>
</mxfile>
